<svg xmlns="http://www.w3.org/2000/svg" version="1.1" xmlns:xlink="http://www.w3.org/1999/xlink" xmlns:svgjs="http://svgjs.dev/svgjs" width="1171" height="560" preserveAspectRatio="none" viewBox="0 0 1171 560"><g mask="url(&quot;#SvgjsMask1044&quot;)" fill="none"><rect width="1171" height="560" x="0" y="0" fill="rgba(233, 233, 233, 1)"></rect><path d="M0,430.559C86.121,418.972,174.008,430.095,252.656,393.14C338.484,352.811,419.492,295.584,464.685,212.214C511.332,126.161,535.945,20.28,505.137,-72.628C475.481,-162.064,376.422,-202.47,306.307,-265.416C246.044,-319.517,193.771,-378.362,122.255,-416.363C36.307,-462.033,-56.733,-538.409,-148.966,-507.331C-241.719,-476.078,-251.382,-347.175,-311.744,-270.128C-368.037,-198.274,-456.245,-154.969,-491.111,-70.611C-531.461,27.015,-557.175,138.772,-521.905,238.346C-485.703,340.552,-402.231,430.091,-300.484,467.563C-203.827,503.161,-102.084,444.294,0,430.559" fill="#979797"></path><path d="M1171 1089.8C1268.23 1083.063 1340.773 1000.207 1409.48 931.081 1467.045 873.165 1489.912 794.653 1533.188 725.406 1584.624 643.103 1680.097 582.437 1687.827 485.69100000000003 1695.893 384.74 1649.52 278.355 1574.327 210.515 1501.436 144.753 1389.208 164.889 1296.489 132.62400000000002 1197.143 98.053 1114.847-1.05600000000004 1010.802 14.416000000000054 905.744 30.038999999999987 822.299 119.62700000000001 768.4100000000001 211.154 718.6949999999999 295.59 744.188 399.692 727.145 496.183 709.351 596.924 628.884 695.292 666.062 790.597 703.217 885.842 822.337 913.552 910.2909999999999 965.6700000000001 994.807 1015.751 1072.995 1096.591 1171 1089.8" fill="#ffffff"></path></g><defs><mask id="SvgjsMask1044"><rect width="1171" height="560" fill="#ffffff"></rect></mask></defs></svg>